<svg width="64" height="62" viewBox="0 0 64 62" fill="none" xmlns="http://www.w3.org/2000/svg">
<path fill-rule="evenodd" clip-rule="evenodd" d="M55.4963 30.9761C55.4982 36.2982 53.6725 41.4595 50.3249 45.5969C46.9772 49.7342 42.3104 52.5966 37.1051 53.7054C31.8998 54.8142 26.4717 54.102 21.7285 51.6881C16.9854 49.2742 13.2149 45.3049 11.0476 40.4441L3.86667 43.3609C6.71337 49.8834 11.7189 55.227 18.0418 58.4932C24.3647 61.7594 31.6194 62.7491 38.5861 61.2959C45.5528 59.8427 51.8068 56.0353 56.2966 50.5136C60.7865 44.9919 63.2383 38.0928 63.24 30.9761C63.2403 24.5114 61.2178 18.2085 57.4561 12.9509C53.6943 7.69332 48.3818 3.74449 42.263 1.65785C36.1443 -0.428784 29.526 -0.548645 23.3357 1.31507C17.1454 3.17878 11.6933 6.93266 7.74367 12.0506V2.58267H0V23.2325L3.87184 27.1043H21.9404V19.3606H12.1421C14.698 14.9296 18.6451 11.466 23.3707 9.50742C28.0963 7.54885 33.3362 7.20478 38.2773 8.52862C43.2185 9.85245 47.5845 12.7702 50.6979 16.829C53.8114 20.8878 55.4981 25.8607 55.4963 30.9761Z" fill="#FF6B00"/>
</svg>
