<svg width="64" height="64" viewBox="0 0 64 64" fill="none" xmlns="http://www.w3.org/2000/svg">
<path fill-rule="evenodd" clip-rule="evenodd" d="M11.8575 0C8.7127 0 5.69669 1.24927 3.47298 3.47298C1.24927 5.69669 0 8.7127 0 11.8575L0 51.3825C0 54.5273 1.24927 57.5433 3.47298 59.767C5.69669 61.9907 8.7127 63.24 11.8575 63.24H51.3825C54.5273 63.24 57.5433 61.9907 59.767 59.767C61.9907 57.5433 63.24 54.5273 63.24 51.3825V11.8575C63.24 8.7127 61.9907 5.69669 59.767 3.47298C57.5433 1.24927 54.5273 0 51.3825 0L11.8575 0ZM15.81 21.7388C17.3824 21.7388 18.8904 21.1141 20.0023 20.0023C21.1141 18.8904 21.7388 17.3824 21.7388 15.81C21.7388 14.2376 21.1141 12.7296 20.0023 11.6177C18.8904 10.5059 17.3824 9.88125 15.81 9.88125C14.2376 9.88125 12.7296 10.5059 11.6177 11.6177C10.5059 12.7296 9.88125 14.2376 9.88125 15.81C9.88125 17.3824 10.5059 18.8904 11.6177 20.0023C12.7296 21.1141 14.2376 21.7388 15.81 21.7388ZM47.43 21.7388C49.0024 21.7388 50.5104 21.1141 51.6223 20.0023C52.7341 18.8904 53.3588 17.3824 53.3588 15.81C53.3588 14.2376 52.7341 12.7296 51.6223 11.6177C50.5104 10.5059 49.0024 9.88125 47.43 9.88125C45.8576 9.88125 44.3496 10.5059 43.2377 11.6177C42.1259 12.7296 41.5013 14.2376 41.5013 15.81C41.5013 17.3824 42.1259 18.8904 43.2377 20.0023C44.3496 21.1141 45.8576 21.7388 47.43 21.7388ZM53.3588 47.43C53.3588 49.0024 52.7341 50.5104 51.6223 51.6223C50.5104 52.7341 49.0024 53.3588 47.43 53.3588C45.8576 53.3588 44.3496 52.7341 43.2377 51.6223C42.1259 50.5104 41.5013 49.0024 41.5013 47.43C41.5013 45.8576 42.1259 44.3496 43.2377 43.2377C44.3496 42.1259 45.8576 41.5013 47.43 41.5013C49.0024 41.5013 50.5104 42.1259 51.6223 43.2377C52.7341 44.3496 53.3588 45.8576 53.3588 47.43ZM47.43 37.5488C49.0024 37.5488 50.5104 36.9241 51.6223 35.8123C52.7341 34.7004 53.3588 33.1924 53.3588 31.62C53.3588 30.0476 52.7341 28.5396 51.6223 27.4277C50.5104 26.3159 49.0024 25.6913 47.43 25.6913C45.8576 25.6913 44.3496 26.3159 43.2377 27.4277C42.1259 28.5396 41.5013 30.0476 41.5013 31.62C41.5013 33.1924 42.1259 34.7004 43.2377 35.8123C44.3496 36.9241 45.8576 37.5488 47.43 37.5488ZM21.7388 47.43C21.7388 49.0024 21.1141 50.5104 20.0023 51.6223C18.8904 52.7341 17.3824 53.3588 15.81 53.3588C14.2376 53.3588 12.7296 52.7341 11.6177 51.6223C10.5059 50.5104 9.88125 49.0024 9.88125 47.43C9.88125 45.8576 10.5059 44.3496 11.6177 43.2377C12.7296 42.1259 14.2376 41.5013 15.81 41.5013C17.3824 41.5013 18.8904 42.1259 20.0023 43.2377C21.1141 44.3496 21.7388 45.8576 21.7388 47.43ZM15.81 37.5488C17.3824 37.5488 18.8904 36.9241 20.0023 35.8123C21.1141 34.7004 21.7388 33.1924 21.7388 31.62C21.7388 30.0476 21.1141 28.5396 20.0023 27.4277C18.8904 26.3159 17.3824 25.6913 15.81 25.6913C14.2376 25.6913 12.7296 26.3159 11.6177 27.4277C10.5059 28.5396 9.88125 30.0476 9.88125 31.62C9.88125 33.1924 10.5059 34.7004 11.6177 35.8123C12.7296 36.9241 14.2376 37.5488 15.81 37.5488Z" fill="#FF6B00"/>
</svg>
