<svg width="64" height="70" viewBox="0 0 64 70" fill="none" xmlns="http://www.w3.org/2000/svg">
<path d="M30.8518 38.6338H30.9748C30.6835 37.9375 30.306 37.2609 29.8633 36.6455L1.54544 20.4765C0.603524 20.8067 0 21.7988 0 23.3028V48.374C0 51.0081 1.84927 54.2113 4.1304 55.5285L27.49 69.0177C28.8768 69.8185 30.1031 69.7367 30.8522 68.9582V38.6338H30.852H30.8518ZM16.5143 56.2703L11.8519 53.5783V48.6922L16.5142 51.3842V56.2703H16.5143ZM20.4791 45.4654C20.1433 45.976 19.5707 46.4049 18.7616 46.752L17.9351 47.057C17.3497 47.2863 16.9665 47.5228 16.7858 47.766C16.605 48.0002 16.5146 48.3232 16.5146 48.735V49.3526L11.8519 46.6609V45.9883C11.8519 45.238 11.994 44.6567 12.2781 44.2442C12.5621 43.8226 13.1606 43.4269 14.0732 43.0571L14.8996 42.7384C15.3904 42.5458 15.7476 42.3038 15.9715 42.0121C16.204 41.7254 16.3202 41.3715 16.3202 40.9507C16.3202 40.3102 16.1135 39.6922 15.7003 39.0968C15.2871 38.4921 14.7101 37.9761 13.9697 37.5486C13.2722 37.1459 12.5188 36.8665 11.7096 36.7104C10.9002 36.5451 10.0565 36.5108 9.17826 36.6077V32.298C10.2201 32.5152 11.1715 32.7808 12.0324 33.095C12.8934 33.4091 13.7241 33.7972 14.5249 34.2595C16.6257 35.4725 18.2273 36.8546 19.3293 38.4059C20.4314 39.9481 20.9824 41.5929 20.9824 43.3408C20.9826 44.2371 20.8147 44.9454 20.4789 45.4652L20.4791 45.4654ZM59.9861 15.537L35.701 1.48925C33.4209 0.170251 29.7242 0.170251 27.4439 1.48925L3.15919 15.5371C1.2139 16.6623 0.92965 18.3838 2.30374 19.6841L29.2545 35.0727C30.741 35.4442 32.4397 35.4417 33.9233 35.0644L60.9033 19.6252C62.2072 18.332 61.9017 16.6453 59.9858 15.5371L59.9861 15.537ZM32.4551 21.0667L31.8683 20.7378C31.2137 20.3713 30.7958 19.9568 30.6148 19.4945C30.4258 19.0277 30.4573 18.2856 30.7094 17.2679L30.9517 16.354C31.0926 15.8099 31.1065 15.3638 30.993 15.0158C30.8893 14.6625 30.6538 14.383 30.2865 14.1773C29.7275 13.8642 29.0583 13.7516 28.2787 13.8397C27.491 13.9231 26.6775 14.1999 25.8383 14.6701C25.048 15.1128 24.3299 15.6672 23.684 16.3331C23.0303 16.9946 22.4692 17.7517 22.0007 18.6046L18.2406 16.4978C19.086 15.6485 19.9166 14.9058 20.7327 14.2697C21.5488 13.6336 22.4108 13.0614 23.3182 12.5529C25.6991 11.219 27.9132 10.4258 29.9605 10.1734C31.9998 9.91645 33.782 10.2152 35.3069 11.0693C36.0892 11.5077 36.6015 12.0078 36.8437 12.5698C37.078 13.1274 37.0916 13.8622 36.885 14.7741L36.6308 15.6814C36.4623 16.3304 36.4272 16.7973 36.5257 17.0821C36.6161 17.3623 36.841 17.6032 37.2003 17.8044L37.7393 18.1061L32.4553 21.0667L32.4551 21.0667ZM38.4905 24.4479L34.2273 22.0595L39.5112 19.0992L43.7744 21.4876L38.4906 24.4479H38.4905ZM61.6077 20.4479L33.4284 36.5735C32.9609 37.2113 32.5629 37.9173 32.2596 38.6447V68.812C32.9917 69.7237 34.281 69.866 35.7503 69.0177L59.1097 55.5287C61.3908 54.2114 63.24 51.0082 63.24 48.374V23.3031C63.24 21.7533 62.5993 20.7466 61.6076 20.448L61.6077 20.4479ZM49.8875 54.86L45.2253 57.5517V52.6654L49.8876 49.9736V54.8599L49.8875 54.86ZM53.8525 39.4767C53.5167 40.3751 52.944 41.4652 52.1349 42.7469L51.3083 44.0065C50.7228 44.9118 50.3396 45.5904 50.1589 46.0425C49.9782 46.4854 49.8877 46.9128 49.8877 47.3244V47.9423L45.2254 50.6339V49.9613C45.2254 49.211 45.3674 48.4655 45.6515 47.7251C45.9356 46.9754 46.534 45.8888 47.4466 44.4652L48.2731 43.1919C48.7639 42.4327 49.121 41.7781 49.3449 41.228C49.5774 40.6728 49.6937 40.1848 49.6937 39.7637C49.6937 39.1233 49.487 38.744 49.0737 38.6257C48.6605 38.4983 48.0834 38.6484 47.343 39.0759C46.6456 39.4786 45.8922 40.069 45.0829 40.8475C44.2736 41.6168 43.4298 42.5569 42.5516 43.6678V39.3585C43.5935 38.3726 44.5448 37.5398 45.4058 36.8596C46.2667 36.1796 47.0976 35.6083 47.8984 35.146C49.9992 33.9331 51.6007 33.466 52.7027 33.7447C53.8049 34.0143 54.3559 35.023 54.3559 36.7706C54.3562 37.6672 54.1883 38.5693 53.8525 39.4769V39.4767Z" fill="#FF6B00"/>
</svg>
