<svg width="64" height="64" viewBox="0 0 64 64" fill="none" xmlns="http://www.w3.org/2000/svg">
<path d="M7.02667 0H56.2133C58.0769 0 59.8642 0.740307 61.1819 2.05806C62.4997 3.37582 63.24 5.16308 63.24 7.02667V56.2133C63.24 58.0769 62.4997 59.8642 61.1819 61.1819C59.8642 62.4997 58.0769 63.24 56.2133 63.24H7.02667C5.16308 63.24 3.37582 62.4997 2.05806 61.1819C0.740307 59.8642 0 58.0769 0 56.2133V7.02667C0 5.16308 0.740307 3.37582 2.05806 2.05806C3.37582 0.740307 5.16308 0 7.02667 0ZM14.0533 7.02667C12.1897 7.02667 10.4025 7.76697 9.08473 9.08473C7.76697 10.4025 7.02667 12.1897 7.02667 14.0533C7.02667 15.9169 7.76697 17.7042 9.08473 19.0219C10.4025 20.3397 12.1897 21.08 14.0533 21.08C15.9169 21.08 17.7042 20.3397 19.0219 19.0219C20.3397 17.7042 21.08 15.9169 21.08 14.0533C21.08 12.1897 20.3397 10.4025 19.0219 9.08473C17.7042 7.76697 15.9169 7.02667 14.0533 7.02667ZM49.1867 42.16C47.3231 42.16 45.5358 42.9003 44.2181 44.2181C42.9003 45.5358 42.16 47.3231 42.16 49.1867C42.16 51.0503 42.9003 52.8375 44.2181 54.1553C45.5358 55.473 47.3231 56.2133 49.1867 56.2133C51.0503 56.2133 52.8375 55.473 54.1553 54.1553C55.473 52.8375 56.2133 51.0503 56.2133 49.1867C56.2133 47.3231 55.473 45.5358 54.1553 44.2181C52.8375 42.9003 51.0503 42.16 49.1867 42.16ZM49.1867 7.02667C47.3231 7.02667 45.5358 7.76697 44.2181 9.08473C42.9003 10.4025 42.16 12.1897 42.16 14.0533C42.16 15.9169 42.9003 17.7042 44.2181 19.0219C45.5358 20.3397 47.3231 21.08 49.1867 21.08C51.0503 21.08 52.8375 20.3397 54.1553 19.0219C55.473 17.7042 56.2133 15.9169 56.2133 14.0533C56.2133 12.1897 55.473 10.4025 54.1553 9.08473C52.8375 7.76697 51.0503 7.02667 49.1867 7.02667ZM14.0533 42.16C12.1897 42.16 10.4025 42.9003 9.08473 44.2181C7.76697 45.5358 7.02667 47.3231 7.02667 49.1867C7.02667 51.0503 7.76697 52.8375 9.08473 54.1553C10.4025 55.473 12.1897 56.2133 14.0533 56.2133C15.9169 56.2133 17.7042 55.473 19.0219 54.1553C20.3397 52.8375 21.08 51.0503 21.08 49.1867C21.08 47.3231 20.3397 45.5358 19.0219 44.2181C17.7042 42.9003 15.9169 42.16 14.0533 42.16Z" fill="#FF6B00"/>
</svg>
