<svg width="64" height="64" viewBox="0 0 64 64" fill="none" xmlns="http://www.w3.org/2000/svg">
<path fill-rule="evenodd" clip-rule="evenodd" d="M11.8575 0C8.7127 0 5.69669 1.24927 3.47298 3.47298C1.24927 5.69669 0 8.7127 0 11.8575L0 51.3825C0 54.5273 1.24927 57.5433 3.47298 59.767C5.69669 61.9907 8.7127 63.24 11.8575 63.24H51.3825C54.5273 63.24 57.5433 61.9907 59.767 59.767C61.9907 57.5433 63.24 54.5273 63.24 51.3825V11.8575C63.24 8.7127 61.9907 5.69669 59.767 3.47298C57.5433 1.24927 54.5273 0 51.3825 0L11.8575 0ZM21.7388 15.81C21.7388 17.3824 21.1141 18.8904 20.0023 20.0023C18.8904 21.1141 17.3824 21.7388 15.81 21.7388C14.2376 21.7388 12.7296 21.1141 11.6177 20.0023C10.5059 18.8904 9.88125 17.3824 9.88125 15.81C9.88125 14.2376 10.5059 12.7296 11.6177 11.6177C12.7296 10.5059 14.2376 9.88125 15.81 9.88125C17.3824 9.88125 18.8904 10.5059 20.0023 11.6177C21.1141 12.7296 21.7388 14.2376 21.7388 15.81ZM53.3588 15.81C53.3588 17.3824 52.7341 18.8904 51.6223 20.0023C50.5104 21.1141 49.0024 21.7388 47.43 21.7388C45.8576 21.7388 44.3496 21.1141 43.2377 20.0023C42.1259 18.8904 41.5013 17.3824 41.5013 15.81C41.5013 14.2376 42.1259 12.7296 43.2377 11.6177C44.3496 10.5059 45.8576 9.88125 47.43 9.88125C49.0024 9.88125 50.5104 10.5059 51.6223 11.6177C52.7341 12.7296 53.3588 14.2376 53.3588 15.81ZM47.43 53.3588C49.0024 53.3588 50.5104 52.7341 51.6223 51.6223C52.7341 50.5104 53.3588 49.0024 53.3588 47.43C53.3588 45.8576 52.7341 44.3496 51.6223 43.2377C50.5104 42.1259 49.0024 41.5013 47.43 41.5013C45.8576 41.5013 44.3496 42.1259 43.2377 43.2377C42.1259 44.3496 41.5013 45.8576 41.5013 47.43C41.5013 49.0024 42.1259 50.5104 43.2377 51.6223C44.3496 52.7341 45.8576 53.3588 47.43 53.3588ZM21.7388 47.43C21.7388 49.0024 21.1141 50.5104 20.0023 51.6223C18.8904 52.7341 17.3824 53.3588 15.81 53.3588C14.2376 53.3588 12.7296 52.7341 11.6177 51.6223C10.5059 50.5104 9.88125 49.0024 9.88125 47.43C9.88125 45.8576 10.5059 44.3496 11.6177 43.2377C12.7296 42.1259 14.2376 41.5013 15.81 41.5013C17.3824 41.5013 18.8904 42.1259 20.0023 43.2377C21.1141 44.3496 21.7388 45.8576 21.7388 47.43ZM31.62 37.5488C33.1924 37.5488 34.7004 36.9241 35.8123 35.8123C36.9241 34.7004 37.5488 33.1924 37.5488 31.62C37.5488 30.0476 36.9241 28.5396 35.8123 27.4277C34.7004 26.3159 33.1924 25.6913 31.62 25.6913C30.0476 25.6913 28.5396 26.3159 27.4277 27.4277C26.3159 28.5396 25.6913 30.0476 25.6913 31.62C25.6913 33.1924 26.3159 34.7004 27.4277 35.8123C28.5396 36.9241 30.0476 37.5488 31.62 37.5488Z" fill="#FF6B00"/>
</svg>
