<svg width="64" height="52" viewBox="0 0 64 52" fill="none" xmlns="http://www.w3.org/2000/svg">
<path d="M31.6597 28.5899L10.0825 50.167C8.59119 51.6584 6.17962 51.6584 4.70413 50.167L1.11852 46.5814C-0.37284 45.0901 -0.37284 42.6785 1.11852 41.203L16.4129 25.9086L1.11852 10.6143C-0.37284 9.12292 -0.37284 6.71136 1.11852 5.23586L4.68826 1.61852C6.17962 0.12716 8.59118 0.12716 10.0667 1.61852L31.6438 23.1956C33.151 24.687 33.151 27.0986 31.6597 28.5899ZM62.1215 23.1956L40.5444 1.61852C39.053 0.12716 36.6414 0.12716 35.1659 1.61852L31.5803 5.20413C30.089 6.69549 30.089 9.10705 31.5803 10.5825L46.8747 25.8769L31.5803 41.1713C30.089 42.6626 30.089 45.0742 31.5803 46.5497L35.1659 50.1353C36.6573 51.6267 39.0689 51.6267 40.5444 50.1353L62.1215 28.5582C63.6128 27.0986 63.6128 24.687 62.1215 23.1956Z" fill="#FF6B00"/>
</svg>
