<svg width="237" height="190" viewBox="0 0 237 190" fill="none" xmlns="http://www.w3.org/2000/svg">
<path d="M229.447 149.206C224.137 146.707 219.792 143.526 215.206 139.209C213.758 137.846 212.31 136.256 210.862 134.665C207.483 131.257 204.103 127.622 200.242 124.669C193.966 119.897 185.76 117.625 178.76 118.761C176.105 119.216 173.933 120.125 171.761 121.261C170.313 122.169 169.106 123.305 167.899 124.441C167.658 124.896 167.658 125.123 167.658 125.123C167.175 125.577 166.209 125.805 165.727 125.35C165.485 125.123 165.485 125.123 165.244 124.896C136.763 112.4 113.109 91.4974 96.4553 64.2334C95.7312 62.8702 95.0071 61.7342 94.283 60.371C92.3521 56.963 89.6971 52.419 86.318 48.5566C81.2494 42.6494 76.1808 39.6958 70.6294 39.2414C68.4571 39.0142 66.0435 39.4686 63.6298 40.1502C62.9058 40.3774 62.423 40.6046 61.9403 40.8318C50.1135 45.603 47.2171 60.5982 51.5617 71.5038C51.803 71.9582 51.5617 72.6398 51.0789 73.0942C51.0789 73.3214 50.8376 73.5486 50.5962 73.7758C40.9417 79.683 30.0803 79.0014 19.7017 78.3198C18.0121 78.3198 16.3226 78.0926 14.633 78.0926C9.80575 77.8654 4.49575 78.0926 1.59939 81.7278C0.392569 83.3182 -0.331522 85.363 0.151205 86.9534C0.633932 88.5438 1.59939 89.907 3.28893 90.5886C5.94393 91.2702 8.35757 90.3614 11.0126 89.2254C12.9435 88.5438 14.8744 87.8622 17.0467 87.635C20.6671 87.4078 23.5635 89.2254 26.2185 91.043C27.6667 91.9518 28.8735 92.8606 30.0803 93.315C39.2521 97.1774 51.3203 96.2686 60.2508 91.043C60.0094 90.5886 60.2508 89.907 60.4921 89.6798C60.9748 89.2254 61.9403 89.2254 62.423 89.907C62.9058 89.907 63.3885 90.1342 63.6298 90.3614C63.8712 90.8158 63.8712 91.2702 63.8712 91.4974C87.2835 115.808 111.178 138.301 143.038 146.48C143.28 146.48 143.28 146.48 143.28 146.707C150.762 144.435 157.038 139.891 161.141 133.984C161.623 133.302 162.348 133.302 163.072 133.529C163.796 133.984 163.796 134.665 163.554 135.347C158.968 142.163 151.728 147.161 143.28 149.661C138.694 151.024 134.108 151.478 129.522 151.024C127.591 150.797 125.419 150.569 123.488 150.115C119.143 149.433 115.04 148.752 111.178 149.888C108.523 150.569 106.593 152.16 105.627 154.205C104.903 156.022 105.386 157.84 106.593 159.885C111.42 166.473 121.316 168.291 137.246 164.883C144.487 163.293 151.003 161.021 156.555 157.84C162.106 154.659 166.451 151.024 169.83 146.48C170.313 145.798 171.037 145.798 171.761 146.253C172.485 146.707 172.485 147.389 172.002 148.07C168.864 152.387 164.52 156.249 159.451 159.203C165.968 163.293 173.933 172.153 171.761 180.105C171.519 181.469 170.554 182.377 169.83 183.513C168.623 185.104 167.899 186.013 168.382 187.376C169.347 189.648 172.968 189.648 175.14 188.966C182.139 186.694 182.381 178.288 180.933 173.289V173.062C179.726 169.2 178.76 165.792 182.381 161.929C183.346 161.021 184.312 160.112 185.277 159.203C187.208 157.613 188.898 155.795 189.863 153.75C186.725 152.614 183.829 151.933 181.415 151.478C180.691 151.251 180.208 150.569 180.45 149.888C180.691 149.206 181.415 148.752 182.139 148.979C185.277 149.661 188.415 150.569 192.277 151.933C194.69 152.841 197.104 153.75 199.518 154.659L200.242 154.886C203.138 156.022 206.034 156.931 209.172 158.067C214.723 159.657 219.551 160.566 224.137 160.339C224.619 160.339 225.343 160.339 225.826 160.339C225.102 159.203 224.861 158.067 224.861 156.704C225.826 153.523 227.516 151.024 229.447 149.206ZM186.001 140.118C183.346 140.345 182.381 136.937 184.553 135.801C188.173 133.757 189.863 139.664 186.001 140.118Z" fill="#FF6B00"/>
<path d="M236.98 156.541C236.74 154.95 234.337 153.133 231.933 151.997C231.693 151.997 231.452 151.77 231.452 151.77C231.452 151.77 231.452 151.997 231.212 151.997C231.212 151.997 230.972 151.997 230.972 152.224C229.289 153.587 227.847 155.632 227.847 157.677C227.847 158.586 228.088 159.494 229.049 160.176C229.289 160.403 229.289 160.63 229.289 160.858C231.693 160.63 234.337 159.949 236.019 158.813C237.221 157.677 236.98 156.768 236.98 156.541Z" fill="#FF6B00"/>
<path d="M202.13 158.813C202.37 160.63 201.649 162.675 200.688 164.72C199.967 166.765 199.005 169.037 199.726 170.173C200.207 170.854 201.169 171.536 202.851 171.763C204.774 172.218 206.456 171.763 207.418 170.4C209.34 167.901 209.1 163.357 207.898 160.63C205.975 160.176 204.053 159.494 202.13 158.813Z" fill="#FF6B00"/>
<path d="M158.867 98.1504C164.395 104.512 169.923 111.101 171.606 119.507C173.048 118.826 174.73 118.144 176.653 117.69C176.653 117.462 176.653 117.235 176.893 116.781C180.018 112.691 179.537 107.693 178.335 104.058C175.932 95.8784 168.241 86.7904 161.03 84.064C158.867 83.1552 156.704 83.1552 155.262 83.6096C154.301 84.064 153.58 84.7456 153.339 85.6544C151.897 88.8352 154.541 92.2432 157.185 95.6512L158.867 98.1504Z" fill="#FF6B00"/>
<path d="M98.0592 62.7072C102.385 59.072 104.549 53.8464 104.789 45.8944C104.789 42.2592 105.75 39.76 107.673 36.352C109.356 33.6256 110.798 30.672 109.115 28.4C108.154 27.0368 106.952 26.3552 105.51 26.3552C102.385 26.5824 98.5399 30.4448 97.3381 33.1712C96.8574 34.5344 96.3767 36.1248 95.896 37.7152C94.9346 41.8048 93.4925 46.3488 89.4066 49.0752C92.5311 52.9376 94.9346 57.0272 96.6171 60.208C97.0978 60.8896 97.5785 61.7984 98.0592 62.7072Z" fill="#FF6B00"/>
<path d="M62.9684 38.624C64.6508 38.1696 66.3333 37.7152 68.0157 37.7152C62.9684 32.0352 67.535 22.72 69.2175 19.312C69.9385 17.7216 70.8999 16.1312 71.8613 14.5408C74.5051 9.7696 77.1489 4.9984 77.1489 0C75.4665 2.9536 73.063 5.4528 70.6595 7.952C68.4964 10.224 66.3333 12.496 64.6508 14.9952C60.3246 22.0384 59.6035 30.8992 62.4877 38.624C62.4877 38.8512 62.7281 38.8512 62.9684 38.624Z" fill="#FF6B00"/>
<path d="M75.2571 173.9L70.5562 175.772C70.5562 175.772 67.7836 156.177 62.9922 144.526C62.661 143.719 63.7663 143.279 64.111 144.081C71.282 160.762 75.2571 173.9 75.2571 173.9Z" fill="#FFE600"/>
<path d="M84.5823 125.186C73.059 122.574 65.4568 140.867 64.7718 143.311C66.257 144.48 79.4834 161.575 89.636 156.738C99.0765 152.242 92.7901 141.436 87.6333 140.906C92.723 138.926 94.9331 127.532 84.5823 125.186Z" fill="#FFE600"/>
<path d="M67.8948 116.254C60.7517 108.024 52.5729 116.248 53.6783 121.338C50.2434 116.812 38.8738 116.94 39.889 127.411C41.0192 139.071 61.0968 141.777 62.9088 142.837C63.5423 141.169 75.5838 125.107 67.8948 116.254Z" fill="#FFE600"/>
<path d="M34.6307 145.071C29.0288 153.767 38.9606 160.328 44.0136 158.27C40.7523 162.152 44.2376 174.072 54.2185 170.837C64.9556 167.357 61.744 146.278 61.9359 144.441C59.6049 143.198 40.8314 135.453 34.6307 145.071Z" fill="#FFE600"/>
</svg>
